<svg width="124" height="48" viewBox="0 0 124 48" fill="none" xmlns="http://www.w3.org/2000/svg">
<g clip-path="url(#clip0_3458_501)">
<path d="M35.1245 23.2806C37.5509 23.2806 39.517 21.1751 39.517 18.5766C39.517 15.978 37.5509 13.8725 35.1245 13.8725C33.6604 13.8725 32.3698 14.6404 31.5698 15.8204V15.8123C29.5547 18.7827 25.5774 18.8473 23.4679 16.0184C22.0566 13.0158 23.2377 10.4819 26.4151 9.81915C28.4377 9.39886 29.9698 7.49138 29.9698 5.20403C29.9698 2.6055 28.0038 0.5 25.5774 0.5C23.1509 0.5 21.1849 2.6055 21.1849 5.20403C21.1849 6.03249 21.3887 6.81245 21.7396 7.48734C23.3585 10.6112 22.1962 13.2785 18.9245 13.9614C17.8113 14.1918 16.8528 14.8748 16.2075 15.8204V15.8123C14.1434 18.8554 10.0113 18.8554 7.94717 15.8123V15.8204C7.14717 14.6444 5.8566 13.8725 4.39245 13.8725C1.96604 13.8725 0 15.978 0 18.5766C0 21.1751 1.96604 23.2806 4.39245 23.2806C5.8566 23.2806 7.14717 22.5128 7.94717 21.3327V21.3408C9.95094 18.3866 13.8943 18.3098 16.0151 21.0902C17.3434 24.6344 13.0566 34.0586 9.69057 34.7214H9.69434C7.64528 35.1215 6.09434 37.0411 6.09434 39.3486C6.09434 41.9472 8.06038 44.0527 10.4868 44.0527C12.9132 44.0527 14.8792 41.9472 14.8792 39.3486C14.8792 38.5364 14.6868 37.7685 14.3472 37.1017C12.683 33.7838 17.1094 23.8868 20.5623 23.2038H20.5585C21.6906 22.9815 22.6717 22.2945 23.3208 21.3367V21.3448C25.3849 18.3018 29.517 18.3018 31.5811 21.3448V21.3367C32.3811 22.5128 33.6717 23.2846 35.1358 23.2846L35.1245 23.2806Z" fill="#292C31"/>
<path d="M30.3003 39.4309C30.7622 39.4309 31.523 39.3494 31.8762 39.2679V41.3599C31.4143 41.4686 30.572 41.5501 29.7569 41.5501C28.2898 41.5501 25.926 41.2784 25.926 37.2301V30.8452H23.6709V28.8618H25.926V24.895H28.2898V28.8618H31.4415V30.8452H28.2898V36.7139C28.2898 39.1048 29.1049 39.4309 30.3003 39.4309Z" fill="#292C31"/>
<path d="M39.7713 41.7131C35.7774 41.7131 33.5766 38.8331 33.5766 35.138C33.5766 31.4429 35.9404 28.5358 39.8257 28.5358C41.8091 28.5358 43.4393 29.5411 44.2272 31.0897V28.8618H46.5638V41.3871H44.2272V39.1863C43.4393 40.735 41.6461 41.7131 39.7713 41.7131ZM40.0974 39.5939C42.8415 39.5939 44.3359 37.5562 44.3359 35.138C44.3359 32.7199 42.8415 30.655 40.0974 30.655C37.5163 30.655 35.9132 32.5569 35.9132 35.138C35.9132 37.692 37.5163 39.5939 40.0974 39.5939Z" fill="#292C31"/>
<path d="M57.5899 28.5358C61.1763 28.5358 63.6487 31.2256 63.6487 35.138C63.6487 38.969 61.0676 41.7131 57.454 41.7131C55.525 41.7131 53.7861 40.735 52.971 39.1863V47.1743H50.6344V28.8618H52.971V31.0897C53.7861 29.5139 55.5793 28.5358 57.5899 28.5358ZM57.128 39.5939C59.5461 39.5939 61.285 37.7463 61.285 35.138C61.285 32.5297 59.5461 30.655 57.128 30.655C54.6284 30.655 52.8623 32.5026 52.8623 35.138C52.8623 37.7463 54.6284 39.5939 57.128 39.5939Z" fill="#292C31"/>
<path d="M77.7722 34.4316C77.7722 34.8935 77.7722 35.2467 77.7178 35.8173H68.0182C68.0725 38.2354 69.5669 39.6482 71.9578 39.6482C73.6152 39.6482 74.7563 38.9962 75.2725 37.8007H77.6363C77.2016 40.1101 74.8921 41.7131 71.9578 41.7131C68.0997 41.7131 65.6816 39.1592 65.6816 35.1109C65.6816 31.1441 68.1269 28.5358 71.8491 28.5358C75.3812 28.5358 77.7722 30.9811 77.7722 34.4316ZM68.0182 33.9969H75.4627C75.4627 31.7962 74.1042 30.4377 71.822 30.4377C69.5397 30.4377 68.1269 31.8777 68.0182 33.9969Z" fill="#292C31"/>
<path d="M85.0396 41.7131C81.9695 41.7131 79.8502 39.9471 79.8502 37.6377H82.1868C82.1868 38.8603 83.3279 39.8112 85.1755 39.8112C86.5612 39.8112 87.4849 39.132 87.4849 38.018C87.4849 37.1758 87.1046 36.6052 85.6102 36.2248L83.0563 35.5728C81.2087 35.0565 80.2306 33.8611 80.2306 32.1222C80.2306 30.0029 82.1868 28.5358 84.9038 28.5358C87.8925 28.5358 89.7129 29.9758 89.7129 32.3124H87.4034C87.4034 31.1169 86.4525 30.3562 84.8223 30.3562C83.5181 30.3562 82.5672 30.9811 82.5672 32.0135C82.5672 32.8014 83.0291 33.372 84.3876 33.7524L86.9687 34.4588C88.8163 34.975 89.8759 36.1977 89.8759 37.9365C89.8759 40.3275 88.0012 41.7131 85.0396 41.7131Z" fill="#292C31"/>
<path d="M97.8799 39.4309C98.3418 39.4309 99.1026 39.3494 99.4558 39.2679V41.3599C98.9939 41.4686 98.1516 41.5501 97.3365 41.5501C95.8694 41.5501 93.5056 41.2784 93.5056 37.2301V30.8452H91.2505V28.8618H93.5056V24.895H95.8694V28.8618H99.0211V30.8452H95.8694V36.7139C95.8694 39.1048 96.6845 39.4309 97.8799 39.4309Z" fill="#292C31"/>
<path d="M104.684 41.3871H102.321V28.8618H104.684V31.7146C105.174 29.5954 106.777 28.6716 108.352 28.6716C108.787 28.6716 109.195 28.6988 109.494 28.7803V30.9539C109.086 30.8724 108.76 30.8724 108.325 30.8724C105.853 30.8724 104.684 33.1275 104.684 35.926V41.3871Z" fill="#292C31"/>
<path d="M121.077 35.3011V28.8618H123.414V41.6316C123.414 43.615 122.816 45.1365 121.73 46.1418C120.724 47.0112 119.339 47.5003 117.627 47.5003C115.834 47.5003 114.366 47.0384 113.388 46.1962C112.492 45.4354 112.003 44.3486 111.976 42.9629H114.339C114.448 44.4845 115.263 45.5169 117.6 45.5169C119.719 45.5169 121.077 44.3214 121.077 41.4686V39.132C120.344 40.6535 118.85 41.686 116.73 41.686C113.47 41.686 111.976 39.5124 111.976 36.3335V28.8618H114.312V35.8445C114.312 38.0724 115.046 39.5939 117.518 39.5939C119.936 39.5939 121.077 37.5562 121.077 35.3011Z" fill="#292C31"/>
</g>
<defs>
<clipPath id="clip0_3458_501">
<rect width="123.414" height="47.0002" fill="white" transform="translate(0 0.5)"/>
</clipPath>
</defs>
</svg>
