<svg xmlns="http://www.w3.org/2000/svg" viewBox="0 0 800 100" fill="#f59e0b">
  <defs>
    <filter id="glow" x="-5%" y="-15%" width="110%" height="130%">
      <feGaussianBlur stdDeviation="1.5" result="blur"/>
      <feMerge>
        <feMergeNode in="blur"/>
        <feMergeNode in="SourceGraphic"/>
      </feMerge>
    </filter>
  </defs>
  
  <!-- ASCII-style block letters - 8px grid -->
  <g filter="url(#glow)">
    
    <!-- === DIE === -->
    
    <!-- D - 6 cols wide -->
    <!-- Row 1: ██████╗ -->
    <rect x="8" y="8" width="8" height="8"/>
    <rect x="16" y="8" width="8" height="8"/>
    <rect x="24" y="8" width="8" height="8"/>
    <rect x="32" y="8" width="8" height="8"/>
    <rect x="40" y="8" width="8" height="8"/>
    <rect x="48" y="8" width="8" height="8"/>
    <!-- Row 2: ██╔══██╗ -->
    <rect x="8" y="16" width="8" height="8"/>
    <rect x="16" y="16" width="8" height="8"/>
    <rect x="48" y="16" width="8" height="8"/>
    <rect x="56" y="16" width="8" height="8"/>
    <!-- Row 3: ██║  ██║ -->
    <rect x="8" y="24" width="8" height="8"/>
    <rect x="16" y="24" width="8" height="8"/>
    <rect x="48" y="24" width="8" height="8"/>
    <rect x="56" y="24" width="8" height="8"/>
    <!-- Row 4: ██║  ██║ -->
    <rect x="8" y="32" width="8" height="8"/>
    <rect x="16" y="32" width="8" height="8"/>
    <rect x="48" y="32" width="8" height="8"/>
    <rect x="56" y="32" width="8" height="8"/>
    <!-- Row 5: ██████╔╝ -->
    <rect x="8" y="40" width="8" height="8"/>
    <rect x="16" y="40" width="8" height="8"/>
    <rect x="24" y="40" width="8" height="8"/>
    <rect x="32" y="40" width="8" height="8"/>
    <rect x="40" y="40" width="8" height="8"/>
    <rect x="48" y="40" width="8" height="8"/>
    <!-- Row 6: ╚═════╝ -->
    
    <!-- I - 2 cols wide -->
    <!-- Row 1: ██╗ -->
    <rect x="72" y="8" width="8" height="8"/>
    <rect x="80" y="8" width="8" height="8"/>
    <!-- Row 2: ██║ -->
    <rect x="72" y="16" width="8" height="8"/>
    <rect x="80" y="16" width="8" height="8"/>
    <!-- Row 3: ██║ -->
    <rect x="72" y="24" width="8" height="8"/>
    <rect x="80" y="24" width="8" height="8"/>
    <!-- Row 4: ██║ -->
    <rect x="72" y="32" width="8" height="8"/>
    <rect x="80" y="32" width="8" height="8"/>
    <!-- Row 5: ██║ -->
    <rect x="72" y="40" width="8" height="8"/>
    <rect x="80" y="40" width="8" height="8"/>
    <!-- Row 6: ╚═╝ -->
    
    <!-- E - 7 cols wide -->
    <!-- Row 1: ███████╗ -->
    <rect x="96" y="8" width="8" height="8"/>
    <rect x="104" y="8" width="8" height="8"/>
    <rect x="112" y="8" width="8" height="8"/>
    <rect x="120" y="8" width="8" height="8"/>
    <rect x="128" y="8" width="8" height="8"/>
    <rect x="136" y="8" width="8" height="8"/>
    <rect x="144" y="8" width="8" height="8"/>
    <!-- Row 2: ██╔════╝ -->
    <rect x="96" y="16" width="8" height="8"/>
    <rect x="104" y="16" width="8" height="8"/>
    <!-- Row 3: █████╗ -->
    <rect x="96" y="24" width="8" height="8"/>
    <rect x="104" y="24" width="8" height="8"/>
    <rect x="112" y="24" width="8" height="8"/>
    <rect x="120" y="24" width="8" height="8"/>
    <rect x="128" y="24" width="8" height="8"/>
    <!-- Row 4: ██╔══╝ -->
    <rect x="96" y="32" width="8" height="8"/>
    <rect x="104" y="32" width="8" height="8"/>
    <!-- Row 5: ███████╗ -->
    <rect x="96" y="40" width="8" height="8"/>
    <rect x="104" y="40" width="8" height="8"/>
    <rect x="112" y="40" width="8" height="8"/>
    <rect x="120" y="40" width="8" height="8"/>
    <rect x="128" y="40" width="8" height="8"/>
    <rect x="136" y="40" width="8" height="8"/>
    <rect x="144" y="40" width="8" height="8"/>
    <!-- Row 6: ╚══════╝ -->
    
    <!-- === GAP === -->
    
    <!-- === FORWARD === -->
    
    <!-- F - 7 cols wide, starting at x=184 -->
    <!-- Row 1: ███████╗ -->
    <rect x="184" y="8" width="8" height="8"/>
    <rect x="192" y="8" width="8" height="8"/>
    <rect x="200" y="8" width="8" height="8"/>
    <rect x="208" y="8" width="8" height="8"/>
    <rect x="216" y="8" width="8" height="8"/>
    <rect x="224" y="8" width="8" height="8"/>
    <rect x="232" y="8" width="8" height="8"/>
    <!-- Row 2: ██╔════╝ -->
    <rect x="184" y="16" width="8" height="8"/>
    <rect x="192" y="16" width="8" height="8"/>
    <!-- Row 3: █████╗ -->
    <rect x="184" y="24" width="8" height="8"/>
    <rect x="192" y="24" width="8" height="8"/>
    <rect x="200" y="24" width="8" height="8"/>
    <rect x="208" y="24" width="8" height="8"/>
    <rect x="216" y="24" width="8" height="8"/>
    <!-- Row 4: ██╔══╝ -->
    <rect x="184" y="32" width="8" height="8"/>
    <rect x="192" y="32" width="8" height="8"/>
    <!-- Row 5: ██║ -->
    <rect x="184" y="40" width="8" height="8"/>
    <rect x="192" y="40" width="8" height="8"/>
    <!-- Row 6: ╚═╝ -->
    
    <!-- O - 6 cols wide, starting at x=256 -->
    <!-- Row 1:  ██████╗ -->
    <rect x="264" y="8" width="8" height="8"/>
    <rect x="272" y="8" width="8" height="8"/>
    <rect x="280" y="8" width="8" height="8"/>
    <rect x="288" y="8" width="8" height="8"/>
    <rect x="296" y="8" width="8" height="8"/>
    <rect x="304" y="8" width="8" height="8"/>
    <!-- Row 2: ██╔═══██╗ -->
    <rect x="256" y="16" width="8" height="8"/>
    <rect x="264" y="16" width="8" height="8"/>
    <rect x="304" y="16" width="8" height="8"/>
    <rect x="312" y="16" width="8" height="8"/>
    <!-- Row 3: ██║   ██║ -->
    <rect x="256" y="24" width="8" height="8"/>
    <rect x="264" y="24" width="8" height="8"/>
    <rect x="304" y="24" width="8" height="8"/>
    <rect x="312" y="24" width="8" height="8"/>
    <!-- Row 4: ██║   ██║ -->
    <rect x="256" y="32" width="8" height="8"/>
    <rect x="264" y="32" width="8" height="8"/>
    <rect x="304" y="32" width="8" height="8"/>
    <rect x="312" y="32" width="8" height="8"/>
    <!-- Row 5: ╚██████╔╝ -->
    <rect x="264" y="40" width="8" height="8"/>
    <rect x="272" y="40" width="8" height="8"/>
    <rect x="280" y="40" width="8" height="8"/>
    <rect x="288" y="40" width="8" height="8"/>
    <rect x="296" y="40" width="8" height="8"/>
    <rect x="304" y="40" width="8" height="8"/>
    <!-- Row 6:  ╚═════╝ -->
    
    <!-- R - 6 cols wide, starting at x=336 -->
    <!-- Row 1: ██████╗ -->
    <rect x="336" y="8" width="8" height="8"/>
    <rect x="344" y="8" width="8" height="8"/>
    <rect x="352" y="8" width="8" height="8"/>
    <rect x="360" y="8" width="8" height="8"/>
    <rect x="368" y="8" width="8" height="8"/>
    <rect x="376" y="8" width="8" height="8"/>
    <!-- Row 2: ██╔══██╗ -->
    <rect x="336" y="16" width="8" height="8"/>
    <rect x="344" y="16" width="8" height="8"/>
    <rect x="368" y="16" width="8" height="8"/>
    <rect x="376" y="16" width="8" height="8"/>
    <!-- Row 3: ██████╔╝ -->
    <rect x="336" y="24" width="8" height="8"/>
    <rect x="344" y="24" width="8" height="8"/>
    <rect x="352" y="24" width="8" height="8"/>
    <rect x="360" y="24" width="8" height="8"/>
    <rect x="368" y="24" width="8" height="8"/>
    <rect x="376" y="24" width="8" height="8"/>
    <!-- Row 4: ██╔══██╗ -->
    <rect x="336" y="32" width="8" height="8"/>
    <rect x="344" y="32" width="8" height="8"/>
    <rect x="368" y="32" width="8" height="8"/>
    <rect x="376" y="32" width="8" height="8"/>
    <!-- Row 5: ██║  ██║ -->
    <rect x="336" y="40" width="8" height="8"/>
    <rect x="344" y="40" width="8" height="8"/>
    <rect x="368" y="40" width="8" height="8"/>
    <rect x="376" y="40" width="8" height="8"/>
    <!-- Row 6: ╚═╝  ╚═╝ -->
    
    <!-- W - 10 cols wide, starting at x=400 -->
    <!-- Row 1: ██╗    ██╗ -->
    <rect x="400" y="8" width="8" height="8"/>
    <rect x="408" y="8" width="8" height="8"/>
    <rect x="456" y="8" width="8" height="8"/>
    <rect x="464" y="8" width="8" height="8"/>
    <!-- Row 2: ██║    ██║ -->
    <rect x="400" y="16" width="8" height="8"/>
    <rect x="408" y="16" width="8" height="8"/>
    <rect x="456" y="16" width="8" height="8"/>
    <rect x="464" y="16" width="8" height="8"/>
    <!-- Row 3: ██║ █╗ ██║ -->
    <rect x="400" y="24" width="8" height="8"/>
    <rect x="408" y="24" width="8" height="8"/>
    <rect x="424" y="24" width="8" height="8"/>
    <rect x="456" y="24" width="8" height="8"/>
    <rect x="464" y="24" width="8" height="8"/>
    <!-- Row 4: ██║███╗██║ -->
    <rect x="400" y="32" width="8" height="8"/>
    <rect x="408" y="32" width="8" height="8"/>
    <rect x="416" y="32" width="8" height="8"/>
    <rect x="424" y="32" width="8" height="8"/>
    <rect x="432" y="32" width="8" height="8"/>
    <rect x="448" y="32" width="8" height="8"/>
    <rect x="456" y="32" width="8" height="8"/>
    <rect x="464" y="32" width="8" height="8"/>
    <!-- Row 5: ╚███╔███╔╝ -->
    <rect x="408" y="40" width="8" height="8"/>
    <rect x="416" y="40" width="8" height="8"/>
    <rect x="424" y="40" width="8" height="8"/>
    <rect x="440" y="40" width="8" height="8"/>
    <rect x="448" y="40" width="8" height="8"/>
    <rect x="456" y="40" width="8" height="8"/>
    <!-- Row 6:  ╚══╝╚══╝ -->
    
    <!-- A - 6 cols wide, starting at x=488 -->
    <!-- Row 1:  █████╗ -->
    <rect x="496" y="8" width="8" height="8"/>
    <rect x="504" y="8" width="8" height="8"/>
    <rect x="512" y="8" width="8" height="8"/>
    <rect x="520" y="8" width="8" height="8"/>
    <rect x="528" y="8" width="8" height="8"/>
    <!-- Row 2: ██╔══██╗ -->
    <rect x="488" y="16" width="8" height="8"/>
    <rect x="496" y="16" width="8" height="8"/>
    <rect x="528" y="16" width="8" height="8"/>
    <rect x="536" y="16" width="8" height="8"/>
    <!-- Row 3: ███████║ -->
    <rect x="488" y="24" width="8" height="8"/>
    <rect x="496" y="24" width="8" height="8"/>
    <rect x="504" y="24" width="8" height="8"/>
    <rect x="512" y="24" width="8" height="8"/>
    <rect x="520" y="24" width="8" height="8"/>
    <rect x="528" y="24" width="8" height="8"/>
    <rect x="536" y="24" width="8" height="8"/>
    <!-- Row 4: ██╔══██║ -->
    <rect x="488" y="32" width="8" height="8"/>
    <rect x="496" y="32" width="8" height="8"/>
    <rect x="528" y="32" width="8" height="8"/>
    <rect x="536" y="32" width="8" height="8"/>
    <!-- Row 5: ██║  ██║ -->
    <rect x="488" y="40" width="8" height="8"/>
    <rect x="496" y="40" width="8" height="8"/>
    <rect x="528" y="40" width="8" height="8"/>
    <rect x="536" y="40" width="8" height="8"/>
    <!-- Row 6: ╚═╝  ╚═╝ -->
    
    <!-- R - 6 cols wide, starting at x=560 -->
    <!-- Row 1: ██████╗ -->
    <rect x="560" y="8" width="8" height="8"/>
    <rect x="568" y="8" width="8" height="8"/>
    <rect x="576" y="8" width="8" height="8"/>
    <rect x="584" y="8" width="8" height="8"/>
    <rect x="592" y="8" width="8" height="8"/>
    <rect x="600" y="8" width="8" height="8"/>
    <!-- Row 2: ██╔══██╗ -->
    <rect x="560" y="16" width="8" height="8"/>
    <rect x="568" y="16" width="8" height="8"/>
    <rect x="592" y="16" width="8" height="8"/>
    <rect x="600" y="16" width="8" height="8"/>
    <!-- Row 3: ██████╔╝ -->
    <rect x="560" y="24" width="8" height="8"/>
    <rect x="568" y="24" width="8" height="8"/>
    <rect x="576" y="24" width="8" height="8"/>
    <rect x="584" y="24" width="8" height="8"/>
    <rect x="592" y="24" width="8" height="8"/>
    <rect x="600" y="24" width="8" height="8"/>
    <!-- Row 4: ██╔══██╗ -->
    <rect x="560" y="32" width="8" height="8"/>
    <rect x="568" y="32" width="8" height="8"/>
    <rect x="592" y="32" width="8" height="8"/>
    <rect x="600" y="32" width="8" height="8"/>
    <!-- Row 5: ██║  ██║ -->
    <rect x="560" y="40" width="8" height="8"/>
    <rect x="568" y="40" width="8" height="8"/>
    <rect x="592" y="40" width="8" height="8"/>
    <rect x="600" y="40" width="8" height="8"/>
    <!-- Row 6: ╚═╝  ╚═╝ -->
    
    <!-- D - 6 cols wide, starting at x=624 -->
    <!-- Row 1: ██████╗ -->
    <rect x="624" y="8" width="8" height="8"/>
    <rect x="632" y="8" width="8" height="8"/>
    <rect x="640" y="8" width="8" height="8"/>
    <rect x="648" y="8" width="8" height="8"/>
    <rect x="656" y="8" width="8" height="8"/>
    <rect x="664" y="8" width="8" height="8"/>
    <!-- Row 2: ██╔══██╗ -->
    <rect x="624" y="16" width="8" height="8"/>
    <rect x="632" y="16" width="8" height="8"/>
    <rect x="664" y="16" width="8" height="8"/>
    <rect x="672" y="16" width="8" height="8"/>
    <!-- Row 3: ██║  ██║ -->
    <rect x="624" y="24" width="8" height="8"/>
    <rect x="632" y="24" width="8" height="8"/>
    <rect x="664" y="24" width="8" height="8"/>
    <rect x="672" y="24" width="8" height="8"/>
    <!-- Row 4: ██║  ██║ -->
    <rect x="624" y="32" width="8" height="8"/>
    <rect x="632" y="32" width="8" height="8"/>
    <rect x="664" y="32" width="8" height="8"/>
    <rect x="672" y="32" width="8" height="8"/>
    <!-- Row 5: ██████╔╝ -->
    <rect x="624" y="40" width="8" height="8"/>
    <rect x="632" y="40" width="8" height="8"/>
    <rect x="640" y="40" width="8" height="8"/>
    <rect x="648" y="40" width="8" height="8"/>
    <rect x="656" y="40" width="8" height="8"/>
    <rect x="664" y="40" width="8" height="8"/>
    <!-- Row 6: ╚═════╝ -->
    
  </g>
</svg>
