<svg width="1134" height="205" viewBox="0 0 1134 205" fill="none" xmlns="http://www.w3.org/2000/svg">
<path d="M789.254 102.21C799.523 96.9852 805.508 86.9018 805.508 75.2377C805.508 55.0562 791.483 41.475 767.014 41.475H710.725V167.657H768.554C796.794 167.657 809.615 151.471 809.615 132.329C809.615 118.396 802.427 106.747 789.254 102.225V102.21ZM733.156 59.9003H764.124C775.581 59.9003 782.256 66.0031 782.256 76.789C782.256 87.575 776.095 94.7168 762.055 94.7168H733.156V59.9003ZM764.623 149.027L733.156 149.012C733.156 149.012 733.156 146.846 733.156 144.154V111.781C733.156 111.781 735.283 111.781 737.923 111.781H765.312C777.796 111.781 785.85 117.884 785.85 130.411C785.85 141.388 778.999 149.042 764.637 149.042L764.623 149.027Z" fill="white"/>
<path d="M814.911 82.3064C814.911 82.3064 814.911 82.2479 814.911 82.204C815.469 92.9899 824.212 101.624 835.068 102.049L835.258 102.254C824.139 102.576 815.205 111.532 814.911 122.626C814.911 122.582 814.911 122.538 814.911 122.494V167.643H836.461V41.4604H814.911V82.3064Z" fill="white"/>
<path d="M890.608 76.672C861.694 76.672 843.136 95.2729 843.136 122.933C843.136 150.593 861.679 169.355 890.608 169.355C919.537 169.355 938.08 150.754 938.08 122.933C938.08 95.112 919.537 76.672 890.608 76.672ZM890.784 150.754C874.53 150.754 865.215 140.334 865.215 123.109C865.215 105.883 874.193 95.112 890.96 95.112C907.728 95.112 916.178 105.693 916.178 122.933C916.178 140.173 907.391 150.754 890.784 150.754Z" fill="white"/>
<path d="M989.733 150.754C974.33 150.754 965.88 139.997 965.88 123.109C965.88 106.22 973.816 95.2876 989.557 95.2876C1000.5 95.2876 1008.28 100.585 1011.18 109.791H1033.08C1030 89.9897 1013.51 76.6866 989.557 76.6866C961.831 76.6866 943.802 95.112 943.816 122.948C943.816 150.769 961.86 169.37 989.909 169.37C1013.53 169.37 1029.86 156.403 1033.1 136.251H1011.2C1008.29 145.119 1001.37 150.754 989.733 150.754Z" fill="white"/>
<path d="M1092.48 114.064L1128.41 78.3842H1101.72L1061.35 117.298V41.4604H1039.79V167.643H1061.35V144.944L1077.25 129.592L1108.65 167.526H1133.63L1092.48 114.064Z" fill="white"/>
<path d="M678.437 133.616L678.172 134.421C675.356 142.997 668.666 148.12 657.825 148.12C642.935 148.12 635.145 137.978 635.145 121.645C635.145 105.312 642.862 94.9949 657.664 94.9949C668.564 94.9949 675.517 100.234 678.187 108.693L678.451 109.513H702.583L702.378 108.166C699.209 87.7652 682.119 74.0669 657.693 74.0669C629.204 74.0669 610.764 93.5607 610.764 121.484C610.764 149.408 628.881 169.077 658.031 169.077C682.515 169.077 699.033 155.686 702.378 134.977L702.598 133.616H678.437Z" fill="white"/>
<path d="M577.155 167.891H600.847V74.3743H577.404L577.155 167.891Z" fill="white"/>
<path d="M305.071 137.012L266.064 41.6506H235.99V167.613H261.091V133.441C261.091 117.459 260.694 100.673 260.02 79.3209L296.431 166.604H313.565L349.565 79.5989C348.788 98.3316 348.377 116.435 348.377 133.441V167.613H373.316V41.636H343.741L305.056 137.012H305.071Z" fill="white"/>
<path d="M425.658 74.0377C411.252 74.0377 399.824 77.9452 392.577 85.3651C386.915 91.1605 384.04 98.9902 384.274 108.005L384.304 109.147H406.499L406.455 107.947C406.309 103.878 407.453 100.571 409.829 98.1121C412.778 95.0681 417.604 93.4582 423.766 93.4582C435.091 93.4582 441.575 98.5073 441.575 107.317V110.201L411.472 113.493C392.372 115.63 381.854 125.684 381.854 141.797C381.854 157.91 393.795 169.077 412.279 169.077C425.717 169.077 437.321 163.603 443.174 154.822C443.321 154.603 443.57 154.471 443.849 154.5L443.717 156.11C443.673 155.862 442.895 167.526 442.895 167.526L465.473 167.438V107.991C465.473 103.688 464.886 99.7659 463.756 96.2242C459.238 81.9991 445.918 74.0523 425.644 74.0523L425.658 74.0377ZM418.983 149.993C410.357 149.993 405.604 146.041 405.604 138.87C405.604 132.416 409.58 128.787 417.766 127.748L441.194 124.718C443.805 139.017 433.639 149.993 418.983 149.993Z" fill="white"/>
<path d="M589.39 36.6016C588.906 45.8508 581.424 53.2415 572.123 53.5927L571.962 53.7683C581.483 54.0464 589.126 61.7151 589.39 71.2131C589.639 61.7004 597.297 54.0464 606.818 53.7683L606.656 53.5927C597.356 53.2415 589.874 45.8362 589.39 36.6016Z" fill="white"/>
<path d="M546.656 87.575C542.446 79.5843 533.042 73.3937 517.83 73.3937C491.013 73.3937 472.793 94.7607 472.793 120.708C472.793 148.061 491.805 168.023 517.83 168.023C532.045 168.023 541.844 161.437 546.055 153.842V155.247C546.055 175.019 536.842 184.4 518.431 184.4C507.267 184.4 498.891 178.15 495.473 169.15H472.617C475.287 188.658 493.272 204.566 519.033 204.566C555.664 204.566 569.072 180.404 569.072 154.457V75.2085H546.656V87.5896V87.575ZM521.644 148.281C506.431 148.281 496.221 137.7 496.221 120.723C496.221 103.747 506.827 93.3704 521.644 93.3704C536.461 93.3704 546.656 104.156 546.656 120.723C546.656 137.29 536.446 148.281 521.644 148.281Z" fill="white"/>
<path d="M26.8258 129.793C28.9605 130.133 31.2085 130.407 33.5604 130.634C31.2085 130.416 28.9605 130.133 26.8258 129.793Z" fill="white"/>
<path d="M46.1605 47.2438C47.7379 51.3538 50.7415 54.1977 54.4252 55.7661C57.0132 56.8621 59.9413 56.8149 62.5577 55.785C72.5603 51.864 83.2147 48.3304 94.2846 45.3164C107.414 41.7355 120.42 39.0617 132.831 37.3421L50.6376 0.730314C44.8665 -1.77346 38.4247 2.46878 38.4436 8.76129L38.5948 66.3859C44.8854 62.3421 48.1724 54.7079 46.1699 47.2438H46.1605Z" fill="white"/>
<path d="M210.604 57.7502C208.271 49.1807 195.114 43.4362 174.504 41.9717C165.399 41.3293 155.283 41.5466 144.543 42.5575C129.289 44.0031 112.779 47.0549 96.0037 51.6278C86.0388 54.3489 76.4329 57.4857 67.3559 60.9437C66.0147 61.4539 64.6923 61.9641 63.3794 62.4932C61.2259 63.3436 59.3746 64.8553 58.1939 66.8394C56.012 70.5242 55.2942 74.9554 56.6449 79.5C55.9365 77.5064 54.9636 75.9002 53.7829 74.6436C50.5243 71.1667 45.2349 70.4959 41.0128 72.7067C34.6183 76.0514 28.7244 79.5472 23.4822 83.1659C15.5386 88.6364 7.09448 95.2313 2.40958 103.886C0.917209 106.654 -0.197344 109.791 0.0293448 112.975C0.341042 117.331 3.14632 120.326 6.56554 122.754C8.39794 124.058 10.3815 125.154 12.4594 126.014C19.0145 128.735 26.4858 129.982 33.5698 130.634V112.436C33.5698 110.66 34.9016 109.073 36.6679 108.988C38.557 108.893 40.1155 110.386 40.1155 112.257C40.1155 112.257 40.1155 133.619 40.1155 133.61V157.117C40.1155 161.18 42.2974 164.978 45.811 167.019L89.562 192.463C91.3188 193.483 93.3212 194.012 95.3331 194.012C96.8066 194.012 98.28 193.729 99.6685 193.162L163.765 166.886C168.081 165.12 170.877 160.953 170.877 156.286V99.6341L171.595 99.294C198.722 84.8099 213.665 68.9275 210.614 57.7502H210.604ZM125.086 122.933C125.086 129.613 122.961 133.496 119.192 133.496C115.423 133.496 112.93 129.906 112.93 121.724V108.714C112.93 102.034 115.055 98.1508 118.824 98.1508C122.592 98.1508 125.086 101.741 125.086 109.923V122.933ZM151.344 116.395C151.344 123.075 149.219 126.958 145.45 126.958C141.681 126.958 139.188 123.368 139.188 115.186V102.176C139.188 95.4958 141.313 91.6126 145.082 91.6126C148.851 91.6126 151.344 95.2029 151.344 103.385V116.395Z" fill="white"/>
</svg>
